<svg width="779" height="139" viewBox="0 0 779 139" fill="none" xmlns="http://www.w3.org/2000/svg">
<path d="M106.824 139H95.7354L53.6816 75.0514L10.9988 139H0L47.8588 66.5486L4.25931 0H15.5636L53.8613 58.5372L92.9859 0H103.589L59.5227 66.3552L106.824 139Z" fill="#209CE9"/>
<path d="M10.5129 62.3154H96.6699V70.2213H10.5129V62.3154ZM10.5129 86.0324H96.6875V93.9383H10.5129V86.0324Z" fill="#209CE9"/>
<path d="M160 38.5L160 105.5" stroke="#20204C" stroke-opacity="0.33"/>
<path d="M328.764 139H317.808L225.689 15.8681H224.838C225.689 30.8331 226.114 42.1214 226.114 49.7331V139H215.69V0H226.539L318.553 125.397H319.191C318.553 113.786 318.234 102.755 318.234 92.3058V0H328.764V139Z" fill="#20204C"/>
<path d="M447.8 92.1123H384.614L362.914 139H350.894L413.441 0H420.355L481.627 139H469.394L447.8 92.1123ZM388.55 83.211H444.183L423.015 32.22C421.242 28.2207 419.114 22.6733 416.632 15.5778C414.717 21.7703 412.626 27.3822 410.356 32.4135L388.55 83.211Z" fill="#20204C"/>
<path d="M616.826 139H604.499L513.748 15.8681H512.899C513.748 30.8331 514.175 42.1214 514.175 49.7331V139H503.749V0H514.597L606.61 125.397H607.248C606.61 113.786 606.291 102.755 606.291 92.3058V0H616.826V139Z" fill="#20204C"/>
<path d="M778.456 66.1421C778.456 88.5897 772.286 106.361 759.949 119.455C747.608 132.485 730.589 139 708.887 139C687.258 139 670.273 132.485 657.937 119.455C645.596 106.361 639.425 88.5249 639.425 65.9487C639.425 43.4364 645.63 32.349 658.04 19.4481C670.523 6.48272 692.452 0 714.012 0C735.709 0 747.785 6.51497 760.053 19.5448C772.32 32.5103 778.456 43.6299 778.456 66.1421ZM651.231 66.1421C651.231 86.3964 656.199 102.071 666.125 113.166C676.056 124.196 690.306 129.711 708.887 129.711C727.609 129.711 741.899 124.229 751.756 113.262C761.687 102.297 766.65 86.5898 766.65 66.1421C766.65 45.7586 761.687 36.7675 751.756 25.9308C741.899 15.0296 727.683 9.57893 709.103 9.57893C690.591 9.57893 676.301 15.0618 666.233 26.0275C656.234 36.9933 651.231 45.9521 651.231 66.1421Z" fill="#20204C"/>
</svg>
