<svg width="821" height="185" viewBox="0 0 821 185" fill="none" xmlns="http://www.w3.org/2000/svg">
<rect width="821" height="185" fill="white"/>
<path d="M127.824 162H116.735L74.6816 98.0514L31.9988 162H21L68.8588 89.5486L25.2593 23H36.5636L74.8613 81.5372L113.986 23H124.589L80.5227 89.3552L127.824 162Z" fill="#209CE9"/>
<path d="M31.5129 85.3154H117.67V93.2213H31.5129V85.3154ZM31.5129 109.032H117.688V116.938H31.5129V109.032Z" fill="#209CE9"/>
<path d="M181 61.5V128.5" stroke="#20204C" stroke-opacity="0.33"/>
<path d="M349.764 162H338.808L246.689 38.8681H245.838C246.689 53.8331 247.114 65.1214 247.114 72.7331V162H236.69V23H247.539L339.553 148.397H340.191C339.553 136.786 339.234 125.755 339.234 115.306V23H349.764V162Z" fill="#20204C"/>
<path d="M468.8 115.112H405.614L383.914 162H371.894L434.441 23H441.355L502.627 162H490.394L468.8 115.112ZM409.55 106.211H465.183L444.015 55.22C442.242 51.2207 440.114 45.6733 437.632 38.5778C435.717 44.7703 433.626 50.3822 431.356 55.4135L409.55 106.211Z" fill="#20204C"/>
<path d="M637.826 162H625.499L534.748 38.8681H533.899C534.748 53.8331 535.175 65.1214 535.175 72.7331V162H524.749V23H535.597L627.61 148.397H628.248C627.61 136.786 627.291 125.755 627.291 115.306V23H637.826V162Z" fill="#20204C"/>
<path d="M799.456 89.1421C799.456 111.59 793.286 129.361 780.949 142.455C768.608 155.485 751.589 162 729.887 162C708.258 162 691.273 155.485 678.937 142.455C666.596 129.361 660.425 111.525 660.425 88.9487C660.425 66.4364 666.63 55.349 679.04 42.4481C691.523 29.4827 713.452 23 735.012 23C756.709 23 768.785 29.515 781.053 42.5448C793.32 55.5103 799.456 66.6299 799.456 89.1421ZM672.231 89.1421C672.231 109.396 677.199 125.071 687.125 136.166C697.056 147.196 711.306 152.711 729.887 152.711C748.609 152.711 762.899 147.229 772.756 136.262C782.687 125.297 787.65 109.59 787.65 89.1421C787.65 68.7586 782.687 59.7675 772.756 48.9308C762.899 38.0296 748.683 32.5789 730.103 32.5789C711.591 32.5789 697.301 38.0618 687.233 49.0275C677.234 59.9933 672.231 68.9521 672.231 89.1421Z" fill="#20204C"/>
</svg>
