<svg id="Layer_1" xmlns="http://www.w3.org/2000/svg" viewBox="0 0 216 29.4"><style>.st0{fill:#4a90e2}.st1{fill:#000034}</style><circle class="st0" cx="4.8" cy="24.4" r="4.8"/><path class="st0" d="M62 .6c-2.6 0-4.8 2.1-4.8 4.8 0 3.8-.6 4.8-4.8 4.8H52c-2.4.2-4.3 2.2-4.3 4.7v.1c0 3.7-.7 4.6-4.8 4.6-.2 0-.4 0-.5.1-2.4.3-4.3 2.3-4.3 4.7 0 2.6 2.1 4.8 4.8 4.8 2.5 0 4.6-2 4.7-4.4v-.4c0-3.4 1.1-4.7 4.7-4.8h.1c2.5 0 4.6-2 4.7-4.5v-.3c0-3.5 1.1-4.8 4.8-4.8 2.6 0 4.8-2.1 4.8-4.8 0-2.5-2.1-4.6-4.7-4.6zM33.8 10.2h-.4c-4.2 0-4.8-1-4.8-4.8 0-2.6-2.1-4.8-4.8-4.8C21.2.6 19 2.7 19 5.4c0 3.8-.6 4.7-4.8 4.7h-.4c-2.4.2-4.3 2.2-4.3 4.7 0 2.6 2.1 4.8 4.8 4.8 2.5 0 4.6-2 4.7-4.4v-.3c0-3.5 1.1-4.8 4.8-4.8 3.7 0 4.8 1.3 4.8 4.7 0 2.6 2.1 4.8 4.8 4.8s4.8-2.1 4.8-4.8c-.1-2.4-2-4.4-4.4-4.6z"/><g><path class="st1" d="M109.3.8c-.3 0-.6.1-.8.4-.2.2-.3.5-.3.9V25L90.7 1.4c-.3-.4-.6-.6-1-.6s-.7.1-.9.4c-.2.2-.3.5-.3.9v26c0 .4.1.7.3.9.2.2.5.3.9.3.3 0 .6-.1.8-.4.2-.2.3-.5.3-.9V5.2l17.5 23.6c.3.4.7.6 1.1.6.4 0 .7-.1.9-.4.2-.2.3-.5.3-.9v-26c0-.4-.1-.7-.3-.9-.3-.3-.6-.4-1-.4zm92-.8c-8.1 0-14.7 6.6-14.7 14.7s6.6 14.7 14.7 14.7S216 22.8 216 14.7 209.4 0 201.3 0zm0 27c-6.8 0-12.3-5.5-12.3-12.3s5.5-12.3 12.3-12.3 12.3 5.5 12.3 12.3S208.1 27 201.3 27zM177 .8c-.3 0-.6.1-.8.4-.2.2-.3.5-.3.9V25L158.4 1.4c-.3-.4-.6-.6-1-.6s-.7.1-.9.4c-.2.2-.3.5-.3.9v26c0 .4.1.7.3.9.2.2.5.3.9.3.3 0 .6-.1.8-.4.2-.2.3-.5.3-.9V5.2L176 28.8c.3.4.7.6 1.1.6.4 0 .7-.1.9-.4.2-.2.3-.5.3-.9v-26c0-.4-.1-.7-.3-.9-.3-.3-.6-.4-1-.4zm-42.3.8c-.1-.3-.3-.5-.5-.6-.3-.2-.5-.2-.8-.2-.6 0-1.1.3-1.3.9l-11.7 26.2c-.1.1-.1.3-.1.4 0 .3.1.6.3.8.2.2.5.3.8.3.5 0 .9-.3 1.1-.8l3.1-7h15.5l3 7c.1.2.3.4.5.6.2.1.4.2.6.2.3 0 .6-.1.8-.3.2-.2.4-.4.4-.7 0-.2 0-.3-.1-.5L134.7 1.6zm-8.2 17.9L133.3 4l6.8 15.5h-13.6z"/></g></svg>